#N canvas 528 34 1089 680 10;
#X obj 17 173 else/biplot;
#X msg 20 17 -0.02569 0.260502 -0.260502 0.02569 1;
#X msg 31 47 1.8685 -0.870686 0.870686 -1.8685 1;
#X msg 422 20 1.94632 -0.94657 0.94657 -1.94632 1;
#X msg 423 47 0.83774 -0.06338 0.06338 -0.83774 1;
#X connect 1 0 0 0;
#X connect 2 0 0 0;
#X connect 3 0 0 0;
#X connect 4 0 0 0;
