#N canvas 736 154 450 300 10;
#X obj 198 104 batchmgmt-sub;
#X obj 138 197 raisestop;
#X obj 329 176 print;
#X obj 138 153 t b l;
#X msg 329 151 TSTP received;
#X connect 0 0 3 0;
#X connect 0 1 4 0;
#X connect 3 0 1 0;
#X connect 3 1 0 0;
#X connect 3 1 2 0;
#X connect 4 0 2 0;
