#N canvas 207 110 1676 857 12;
#X obj 68 56 noise~;
#X obj 68 81 *~ 0.01;
#X obj 68 106 +~;
#X obj 150 55 osc~ 80;
#X msg 276 24 80;
#X obj 316 24 loadbang;
#X msg 278 107 60;
#X text 491 77 test input is a low frequency osc~ sweeps and jumps
;
#X text 490 102 plus -40dB noise;
#X obj 230 418 tabwrite~ array1;
#N canvas 0 50 450 250 (subpatch) 0;
#X array array1 64 float 0;
#X coords 0 1 63 -1 200 140 1 0 0;
#X restore 418 299 graph;
#X obj 338 313 metro 17;
#X obj 338 257 tgl 15 0 empty empty empty 17 7 0 10 #fcfcfc #000000
#000000 0 1;
#X obj 28 385 snapshot~;
#X obj -66 420 nbx 6 14 -1e+37 1e+37 0 0 empty empty empty 0 -8 0 10
#fcfcfc #000000 #000000 0 256;
#X obj -87 256 dac~;
#X obj 218 24 vline~;
#X msg 278 65 120 4000 \, 80 4000 4000;
#X msg 280 182 750;
#X msg 275 217 1500;
#X msg 276 146 375;
#X obj -92 205 hip~ 4;
#X obj -96 165 *~ 0;
#X msg -4 166 0.03;
#X text 35 165 set volume here \, if desired;
#X text 368 259 turn on plot and take snapshot of frequency;
#N canvas 0 50 450 250 (subpatch) 0;
#X array array2 64 float 0;
#X coords 0 1 64 -1 200 140 1;
#X restore 633 300 graph;
#N canvas 0 50 450 250 (subpatch) 0;
#X array array3 64 float 0;
#X coords 0 1 63 -1 200 140 1 0 0;
#X restore 850 300 graph;
#N canvas 0 50 450 250 (subpatch) 0;
#X array array4 64 float 0;
#X coords 0 1 64 -1 200 140 1 0 0;
#X restore 1065 301 graph;
#N canvas 0 50 450 250 (subpatch) 0;
#X array array5 64 float 0;
#X coords 0 1 63 -1 200 140 1 0 0;
#X restore 418 469 graph;
#N canvas 0 50 450 250 (subpatch) 0;
#X array array6 64 float 0;
#X coords 0 1 64 -1 200 140 1 0 0;
#X restore 633 470 graph;
#N canvas 0 50 450 250 (subpatch) 0;
#X array array7 64 float 0;
#X coords 0 1 63 -1 200 140 1 0 0;
#X restore 850 470 graph;
#N canvas 0 50 450 250 (subpatch) 0;
#X array array8 64 float 0;
#X coords 0 1 64 -1 200 140 1 0 0;
#X restore 1065 471 graph;
#X obj 240 448 tabwrite~ array2;
#X obj 250 478 tabwrite~ array3;
#X obj 260 508 tabwrite~ array4;
#X obj 270 538 tabwrite~ array5;
#X obj 280 568 tabwrite~ array6;
#X obj 290 598 tabwrite~ array7;
#X obj 300 628 tabwrite~ array8;
#X obj 28 414 snapshot~;
#X obj -66 451 nbx 6 14 -1e+37 1e+37 0 0 empty empty empty 0 -8 0 10
#fcfcfc #000000 #000000 0 256;
#X obj 28 445 snapshot~;
#X obj -66 480 nbx 6 14 -1e+37 1e+37 0 0 empty empty empty 0 -8 0 10
#fcfcfc #000000 #000000 0 256;
#X obj 28 474 snapshot~;
#X obj -66 511 nbx 6 14 -1e+37 1e+37 0 0 empty empty empty 0 -8 0 10
#fcfcfc #000000 #000000 0 256;
#X obj 28 505 snapshot~;
#X obj -66 540 nbx 6 14 -1e+37 1e+37 0 0 empty empty empty 0 -8 0 10
#fcfcfc #000000 #000000 0 256;
#X obj 28 534 snapshot~;
#X obj -66 571 nbx 6 14 -1e+37 1e+37 0 0 empty empty empty 0 -8 0 10
#fcfcfc #000000 #000000 0 256;
#X obj 28 565 snapshot~;
#X obj -66 600 nbx 6 14 -1e+37 1e+37 0 0 empty empty empty 0 -8 0 10
#fcfcfc #000000 #000000 0 256;
#X obj 28 594 snapshot~;
#X obj -66 631 nbx 6 14 -1e+37 1e+37 0 0 empty empty empty 0 -8 0 10
#fcfcfc #000000 #000000 0 256;
#X obj 72 282 pll~ 30 240 30 2000 0.001 90 0.1 0.1;
#X connect 0 0 1 0;
#X connect 1 0 2 0;
#X connect 2 0 54 0;
#X connect 3 0 2 1;
#X connect 4 0 16 0;
#X connect 5 0 4 0;
#X connect 6 0 16 0;
#X connect 11 0 9 0;
#X connect 11 0 13 0;
#X connect 11 0 33 0;
#X connect 11 0 34 0;
#X connect 11 0 35 0;
#X connect 11 0 36 0;
#X connect 11 0 37 0;
#X connect 11 0 38 0;
#X connect 11 0 39 0;
#X connect 11 0 40 0;
#X connect 11 0 42 0;
#X connect 11 0 44 0;
#X connect 11 0 46 0;
#X connect 11 0 48 0;
#X connect 11 0 50 0;
#X connect 11 0 52 0;
#X connect 12 0 11 0;
#X connect 13 0 14 0;
#X connect 16 0 3 0;
#X connect 17 0 16 0;
#X connect 18 0 16 0;
#X connect 19 0 16 0;
#X connect 20 0 16 0;
#X connect 21 0 15 0;
#X connect 21 0 15 1;
#X connect 22 0 21 0;
#X connect 23 0 22 1;
#X connect 40 0 41 0;
#X connect 42 0 43 0;
#X connect 44 0 45 0;
#X connect 46 0 47 0;
#X connect 48 0 49 0;
#X connect 50 0 51 0;
#X connect 52 0 53 0;
#X connect 54 0 22 0;
#X connect 54 0 9 0;
#X connect 54 0 13 0;
#X connect 54 1 33 0;
#X connect 54 2 34 0;
#X connect 54 3 35 0;
#X connect 54 4 36 0;
#X connect 54 5 37 0;
#X connect 54 6 38 0;
#X connect 54 7 39 0;
